<svg width="42" height="42" viewBox="0 0 42 42" fill="none" xmlns="http://www.w3.org/2000/svg">
<path d="M28.2188 30.1875H25.8123L23.625 28.5469V26.733C24.1399 26.3734 24.5756 25.9121 24.9052 25.3776C25.2348 24.843 25.4513 24.2465 25.5412 23.625H26.25C26.5981 23.625 26.9319 23.4867 27.1781 23.2406C27.4242 22.9944 27.5625 22.6606 27.5625 22.3125V21.6562C27.5621 21.3512 27.4556 21.0559 27.2611 20.8209C27.0666 20.5859 26.7963 20.426 26.4967 20.3687L27.3702 19.4952C27.4933 19.3722 27.5625 19.2053 27.5625 19.0312V18.375C27.5648 17.568 27.3514 16.775 26.9443 16.0781C26.5409 15.3806 25.9613 14.8014 25.2636 14.3983C24.5659 13.9952 23.7745 13.7824 22.9688 13.7812H19.0312C18.2266 13.7818 17.4362 13.9937 16.7392 14.3958C16.0422 14.7979 15.463 15.376 15.0596 16.0722C14.6504 16.7705 14.4356 17.5656 14.4375 18.375V19.0312C14.4375 19.2053 14.5067 19.3722 14.6298 19.4952L15.5033 20.3687C15.2037 20.426 14.9334 20.5859 14.7389 20.8209C14.5444 21.0559 14.4379 21.3512 14.4375 21.6562V22.3125C14.4375 22.6606 14.5758 22.9944 14.8219 23.2406C15.0681 23.4867 15.4019 23.625 15.75 23.625H16.4587C16.5487 24.2465 16.7652 24.843 17.0948 25.3776C17.4244 25.9121 17.8601 26.3734 18.375 26.733V28.5469L16.1877 30.1875H13.7812C13.2591 30.1875 12.7583 30.3949 12.3891 30.7641C12.0199 31.1333 11.8125 31.6341 11.8125 32.1562V40.0312C11.8125 40.2053 11.8816 40.3722 12.0047 40.4953C12.1278 40.6184 12.2947 40.6875 12.4688 40.6875H29.5312C29.7053 40.6875 29.8722 40.6184 29.9953 40.4953C30.1184 40.3722 30.1875 40.2053 30.1875 40.0312V32.1562C30.1875 31.6341 29.9801 31.1333 29.6109 30.7641C29.2417 30.3949 28.7409 30.1875 28.2188 30.1875ZM26.25 22.3125H25.5938V21.6562H26.25V22.3125ZM15.75 18.375C15.7463 17.7979 15.8999 17.2307 16.1943 16.7344C16.4819 16.2362 16.8954 15.8225 17.3933 15.5345C17.8912 15.2466 18.4561 15.0946 19.0312 15.0938H22.9688C23.5452 15.0945 24.1113 15.247 24.61 15.5361C25.1087 15.8251 25.5225 16.2405 25.8097 16.7403C26.1019 17.2352 26.2541 17.8003 26.25 18.375V18.7596L25.5938 19.4158V19.0312C25.5937 18.8849 25.5447 18.7427 25.4546 18.6274C25.3645 18.512 25.2383 18.4301 25.0963 18.3947L19.8463 17.0822C19.6946 17.0436 19.534 17.0611 19.3942 17.1314L16.7692 18.4439C16.6601 18.4984 16.5683 18.5823 16.5042 18.686C16.4401 18.7897 16.4062 18.9093 16.4062 19.0312V19.4158L15.75 18.7596V18.375ZM15.75 21.6562H16.4062V22.3125H15.75V21.6562ZM17.7188 22.9688V19.4368L19.7636 18.4144L24.2812 19.5438V22.9688C24.2812 23.839 23.9355 24.6736 23.3202 25.2889C22.7048 25.9043 21.8702 26.25 21 26.25C20.1298 26.25 19.2952 25.9043 18.6798 25.2889C18.0645 24.6736 17.7188 23.839 17.7188 22.9688ZM19.425 29.4C19.5065 29.3389 19.5727 29.2596 19.6182 29.1685C19.6638 29.0774 19.6875 28.9769 19.6875 28.875V27.3656C20.5435 27.6238 21.4565 27.6238 22.3125 27.3656V28.875C22.3125 28.9769 22.3362 29.0774 22.3818 29.1685C22.4273 29.2596 22.4935 29.3389 22.575 29.4L24.4013 30.7696L21 32.7134L17.5987 30.7696L19.425 29.4ZM24.6678 32.1287L23.8488 36.225C23.8185 36.3733 23.7379 36.5066 23.6205 36.6023C23.5032 36.698 23.3564 36.7502 23.205 36.75H18.795C18.6436 36.7502 18.4968 36.698 18.3795 36.6023C18.2621 36.5066 18.1815 36.3733 18.1512 36.225L17.3322 32.1313L20.6745 34.041C20.7736 34.0976 20.8858 34.1274 21 34.1274C21.1142 34.1274 21.2264 34.0976 21.3255 34.041L24.6678 32.1287ZM28.875 39.375H13.125V32.1562C13.125 31.9822 13.1941 31.8153 13.3172 31.6922C13.4403 31.5691 13.6072 31.5 13.7812 31.5H15.8681L16.8656 36.4796C16.9557 36.9253 17.1969 37.3262 17.5484 37.6146C17.9 37.903 18.3403 38.0612 18.795 38.0625H23.205C23.6596 38.0613 24.0999 37.9032 24.4514 37.6149C24.8029 37.3266 25.0441 36.9258 25.1344 36.4803L26.1319 31.5H28.2188C28.3928 31.5 28.5597 31.5691 28.6828 31.6922C28.8059 31.8153 28.875 31.9822 28.875 32.1562V39.375Z" fill="white"/>
<path d="M38.7188 1.3125H30.8438C30.3216 1.3125 29.8208 1.51992 29.4516 1.88913C29.0824 2.25835 28.875 2.75911 28.875 3.28125V11.1562C28.875 11.6784 29.0824 12.1792 29.4516 12.5484C29.8208 12.9176 30.3216 13.125 30.8438 13.125H38.7188C39.2409 13.125 39.7417 12.9176 40.1109 12.5484C40.4801 12.1792 40.6875 11.6784 40.6875 11.1562V3.28125C40.6875 2.75911 40.4801 2.25835 40.1109 1.88913C39.7417 1.51992 39.2409 1.3125 38.7188 1.3125ZM39.375 11.1562C39.375 11.3303 39.3059 11.4972 39.1828 11.6203C39.0597 11.7434 38.8928 11.8125 38.7188 11.8125H30.8438C30.6697 11.8125 30.5028 11.7434 30.3797 11.6203C30.2566 11.4972 30.1875 11.3303 30.1875 11.1562V3.28125C30.1875 3.1072 30.2566 2.94028 30.3797 2.81721C30.5028 2.69414 30.6697 2.625 30.8438 2.625H38.7188C38.8928 2.625 39.0597 2.69414 39.1828 2.81721C39.3059 2.94028 39.375 3.1072 39.375 3.28125V11.1562Z" fill="white"/>
<path d="M34.0633 24.7276L31.8937 23.1001L31.1062 24.1501L33.7312 26.1189C33.8576 26.2136 34.0139 26.2596 34.1714 26.2484C34.329 26.2372 34.4772 26.1695 34.5889 26.0578L38.5264 22.1203L37.5985 21.1924L34.0633 24.7276Z" fill="white"/>
<path d="M3.28125 13.125H11.1562C11.6784 13.125 12.1792 12.9176 12.5484 12.5484C12.9176 12.1792 13.125 11.6784 13.125 11.1562V3.28125C13.125 2.75911 12.9176 2.25835 12.5484 1.88913C12.1792 1.51992 11.6784 1.3125 11.1562 1.3125H3.28125C2.75911 1.3125 2.25835 1.51992 1.88913 1.88913C1.51992 2.25835 1.3125 2.75911 1.3125 3.28125V11.1562C1.3125 11.6784 1.51992 12.1792 1.88913 12.5484C2.25835 12.9176 2.75911 13.125 3.28125 13.125ZM2.625 3.28125C2.625 3.1072 2.69414 2.94028 2.81721 2.81721C2.94028 2.69414 3.1072 2.625 3.28125 2.625H11.1562C11.3303 2.625 11.4972 2.69414 11.6203 2.81721C11.7434 2.94028 11.8125 3.1072 11.8125 3.28125V11.1562C11.8125 11.3303 11.7434 11.4972 11.6203 11.6203C11.4972 11.7434 11.3303 11.8125 11.1562 11.8125H3.28125C3.1072 11.8125 2.94028 11.7434 2.81721 11.6203C2.69414 11.4972 2.625 11.3303 2.625 11.1562V3.28125Z" fill="white"/>
<path d="M13.125 28.2188V20.3438C13.125 19.8216 12.9176 19.3208 12.5484 18.9516C12.1792 18.5824 11.6784 18.375 11.1562 18.375H3.28125C2.75911 18.375 2.25835 18.5824 1.88913 18.9516C1.51992 19.3208 1.3125 19.8216 1.3125 20.3438V28.2188C1.3125 28.7409 1.51992 29.2417 1.88913 29.6109C2.25835 29.9801 2.75911 30.1875 3.28125 30.1875H11.1562C11.6784 30.1875 12.1792 29.9801 12.5484 29.6109C12.9176 29.2417 13.125 28.7409 13.125 28.2188ZM11.8125 28.2188C11.8125 28.3928 11.7434 28.5597 11.6203 28.6828C11.4972 28.8059 11.3303 28.875 11.1562 28.875H3.28125C3.1072 28.875 2.94028 28.8059 2.81721 28.6828C2.69414 28.5597 2.625 28.3928 2.625 28.2188V20.3438C2.625 20.1697 2.69414 20.0028 2.81721 19.8797C2.94028 19.7566 3.1072 19.6875 3.28125 19.6875H11.1562C11.3303 19.6875 11.4972 19.7566 11.6203 19.8797C11.7434 20.0028 11.8125 20.1697 11.8125 20.3438V28.2188Z" fill="white"/>
<path d="M6.5625 9.75056V11.1562H7.875V9.75056C8.32628 9.6332 8.73805 9.39748 9.06777 9.06777C9.39748 8.73805 9.6332 8.32628 9.75056 7.875H11.1562V6.5625H9.75056C9.6332 6.11122 9.39748 5.69945 9.06777 5.36973C8.73805 5.04002 8.32628 4.8043 7.875 4.68694V3.28125H6.5625V4.68694C6.11122 4.8043 5.69945 5.04002 5.36973 5.36973C5.04002 5.69945 4.8043 6.11122 4.68694 6.5625H3.28125V7.875H4.68694C4.8043 8.32628 5.04002 8.73805 5.36973 9.06777C5.69945 9.39748 6.11122 9.6332 6.5625 9.75056ZM7.21875 5.90625C7.47834 5.90625 7.7321 5.98323 7.94794 6.12745C8.16378 6.27167 8.332 6.47665 8.43134 6.71648C8.53068 6.95631 8.55667 7.22021 8.50603 7.47481C8.45539 7.72941 8.33038 7.96327 8.14683 8.14683C7.96327 8.33038 7.72941 8.45539 7.47481 8.50603C7.22021 8.55667 6.95631 8.53068 6.71648 8.43134C6.47665 8.332 6.27167 8.16378 6.12745 7.94794C5.98323 7.7321 5.90625 7.47834 5.90625 7.21875C5.90625 6.87065 6.04453 6.53681 6.29067 6.29067C6.53681 6.04453 6.87065 5.90625 7.21875 5.90625Z" fill="white"/>
<path d="M23.8173 9.38005L24.7452 10.308L27.3702 7.68299L27.3656 7.67839C27.4283 7.61899 27.4783 7.54749 27.5126 7.46823C27.5468 7.38897 27.5647 7.30359 27.5651 7.21724C27.5654 7.13088 27.5483 7.04535 27.5147 6.9658C27.4811 6.88625 27.4317 6.81434 27.3696 6.75439L24.7446 4.12939L23.8173 5.05799L25.3221 6.56277H14.4375V7.87527H25.3221L23.8173 9.38005Z" fill="white"/>
<path d="M6.75488 14.6296L4.78613 16.5984L5.71407 17.5263L7.21885 16.0215L8.72363 17.5263L9.65157 16.5984L7.68282 14.6296C7.55976 14.5066 7.39287 14.4375 7.21885 14.4375C7.04484 14.4375 6.87795 14.5066 6.75488 14.6296Z" fill="white"/>
<path d="M38.7188 18.375H30.8438C30.3216 18.375 29.8208 18.5824 29.4516 18.9516C29.0824 19.3208 28.875 19.8216 28.875 20.3438V28.2188C28.875 28.7409 29.0824 29.2417 29.4516 29.6109C29.8208 29.9801 30.3216 30.1875 30.8438 30.1875H38.7188C39.2409 30.1875 39.7417 29.9801 40.1109 29.6109C40.4801 29.2417 40.6875 28.7409 40.6875 28.2188V20.3438C40.6875 19.8216 40.4801 19.3208 40.1109 18.9516C39.7417 18.5824 39.2409 18.375 38.7188 18.375ZM39.375 28.2188C39.375 28.3928 39.3059 28.5597 39.1828 28.6828C39.0597 28.8059 38.8928 28.875 38.7188 28.875H30.8438C30.6697 28.875 30.5028 28.8059 30.3797 28.6828C30.2566 28.5597 30.1875 28.3928 30.1875 28.2188V20.3438C30.1875 20.1697 30.2566 20.0028 30.3797 19.8797C30.5028 19.7566 30.6697 19.6875 30.8438 19.6875H38.7188C38.8928 19.6875 39.0597 19.7566 39.1828 19.8797C39.3059 20.0028 39.375 20.1697 39.375 20.3438V28.2188Z" fill="white"/>
<path d="M35.2453 17.5266L37.2141 15.5578L36.2861 14.6299L34.7813 16.1347L33.2766 14.6299L32.3486 15.5578L34.3174 17.5266C34.4404 17.6496 34.6073 17.7187 34.7813 17.7187C34.9554 17.7187 35.1223 17.6496 35.2453 17.5266Z" fill="white"/>
<path d="M38.0625 3.9375H31.5V5.25H38.0625V3.9375Z" fill="white"/>
<path d="M38.0625 6.5625H31.5V7.875H38.0625V6.5625Z" fill="white"/>
<path d="M38.0625 9.1875H31.5V10.5H38.0625V9.1875Z" fill="white"/>
<path d="M7.875 23.625H6.5625V24.9375H7.875V23.625Z" fill="white"/>
<path d="M10.5 23.625H9.1875V24.9375H10.5V23.625Z" fill="white"/>
<path d="M5.25 23.625H3.9375V24.9375H5.25V23.625Z" fill="white"/>
</svg>
