<svg width="42" height="42" viewBox="0 0 42 42" fill="none" xmlns="http://www.w3.org/2000/svg">
<g clip-path="url(#clip0_18_68)">
<path d="M37.8009 17.4444V13.724C37.8009 12.8316 37.4531 11.9922 36.8216 11.3606L26.4442 0.981996C25.8111 0.348715 24.9688 0 24.0726 0H8.46185C6.11141 0 4.1991 1.90895 4.1991 4.25537V6.93361C4.1991 7.27347 4.47448 7.54884 4.81433 7.54884C5.15419 7.54884 5.42957 7.27347 5.42957 6.93361V4.25537C5.42957 2.58743 6.78981 1.23047 8.46185 1.23047H24.0726C24.2502 1.23047 24.4244 1.25213 24.5922 1.29404V10.1285C24.5922 11.8277 25.9745 13.2101 27.6734 13.2101H29.1238C29.4637 13.2101 29.739 12.9347 29.739 12.5948C29.739 12.255 29.4637 11.9796 29.1238 11.9796H27.6734C26.653 11.9796 25.8227 11.1492 25.8227 10.1285V2.10066L35.7005 11.9796H31.9949C31.655 11.9796 31.3797 12.255 31.3797 12.5948C31.3797 12.9347 31.655 13.2101 31.9949 13.2101H36.5077C36.5491 13.3762 36.5704 13.5484 36.5704 13.724V16.9194C36.2853 16.8528 35.9887 16.8164 35.6836 16.8164H6.31641C6.01133 16.8164 5.71471 16.8528 5.42957 16.9194V9.80479C5.42957 9.46493 5.15419 9.18955 4.81433 9.18955C4.47448 9.18955 4.1991 9.46493 4.1991 9.80479V17.4444C3.12941 18.1398 2.41992 19.3447 2.41992 20.7129V32.6895C2.41992 34.0577 3.12941 35.2625 4.1991 35.9579V37.7446C4.1991 40.091 6.11141 42 8.46185 42H31.3341C31.674 42 31.9494 41.7246 31.9494 41.3848C31.9494 41.0449 31.674 40.7695 31.3341 40.7695H8.46185C6.78981 40.7695 5.42957 39.4126 5.42957 37.7446V36.4829C5.71471 36.5496 6.01133 36.5859 6.31641 36.5859H8.54962C8.88948 36.5859 9.16486 36.3106 9.16486 35.9707C9.16486 35.6308 8.88948 35.3555 8.54962 35.3555H6.31641C4.84632 35.3555 3.65039 34.1595 3.65039 32.6895V20.7129C3.65039 19.2428 4.84632 18.0469 6.31641 18.0469H35.6836C37.1537 18.0469 38.3496 19.2428 38.3496 20.7129V32.6895C38.3496 34.1595 37.1537 35.3555 35.6836 35.3555H11.4207C11.0809 35.3555 10.8055 35.6308 10.8055 35.9707C10.8055 36.3106 11.0809 36.5859 11.4207 36.5859H35.6836C35.9887 36.5859 36.2853 36.5496 36.5704 36.4829V37.7446C36.5704 39.2085 35.5245 40.4602 34.0835 40.7209C33.7491 40.7813 33.5272 41.1015 33.5876 41.4358C33.6413 41.7332 33.9004 41.9416 34.1923 41.9416C34.2286 41.9416 34.2655 41.9384 34.3025 41.9317C36.3297 41.5649 37.8009 39.8039 37.8009 37.7446V35.9579C38.8707 35.2625 39.5801 34.0577 39.5801 32.6895V20.7129C39.5801 19.3447 38.8706 18.1398 37.8009 17.4444Z" fill="white"/>
<path d="M26.9011 31.9517C27.2181 32.0727 27.574 31.9133 27.695 31.5956L28.4186 29.6959H33.211L33.9273 31.594C34.0202 31.8403 34.2543 31.9922 34.503 31.9922C34.5752 31.9922 34.6486 31.9794 34.7201 31.9524C35.038 31.8325 35.1984 31.4775 35.0784 31.1596L31.5991 21.9399C31.597 21.9343 31.5947 21.9287 31.5925 21.9231C31.4644 21.6117 31.1641 21.4106 30.8275 21.4106C30.8272 21.4106 30.827 21.4106 30.8267 21.4106C30.4898 21.411 30.1894 21.6127 30.0619 21.9247C30.06 21.9293 30.0581 21.9339 30.0564 21.9387L26.5451 31.1579C26.4241 31.4752 26.5835 31.8307 26.9011 31.9517ZM30.8257 23.3755L32.7465 28.4654H28.8871L30.8257 23.3755Z" fill="white"/>
<path d="M17.5605 21.9231C17.4324 21.6117 17.1321 21.4106 16.7955 21.4106C16.7952 21.4106 16.795 21.4106 16.7947 21.4106C16.4578 21.411 16.1574 21.6127 16.0299 21.9247C16.028 21.9293 16.0261 21.9339 16.0244 21.9387L12.5131 31.1579C12.3921 31.4754 12.5516 31.8308 12.8691 31.9518C13.1863 32.0729 13.542 31.9134 13.663 31.5958L14.3866 29.696H19.179L19.8953 31.5942C19.9882 31.8405 20.2223 31.9923 20.471 31.9923C20.5432 31.9923 20.6166 31.9796 20.6881 31.9526C21.006 31.8326 21.1664 31.4777 21.0464 31.1597L17.5671 21.9401C17.565 21.9343 17.5628 21.9287 17.5605 21.9231ZM14.8552 28.4655L16.7938 23.3756L18.7146 28.4655H14.8552Z" fill="white"/>
<path d="M11.4065 22.0259C11.4065 21.686 11.1312 21.4106 10.7913 21.4106C10.4515 21.4106 10.1761 21.686 10.1761 22.0259V29.4995C10.1761 29.9716 9.92875 30.4021 9.53074 30.623C8.74685 31.0583 7.96919 30.3134 7.93138 30.2764C7.6916 30.0376 7.30392 30.0373 7.06365 30.2759C6.82264 30.5155 6.82141 30.905 7.06086 31.1459C7.10557 31.191 7.9226 31.9967 9.01411 31.9967C9.36274 31.9967 9.73967 31.9144 10.128 31.6988C10.9167 31.261 11.4066 30.4182 11.4066 29.4993V22.0259H11.4065Z" fill="white"/>
<path d="M27.314 21.4591C26.9919 21.3517 26.6434 21.5264 26.5363 21.8489L23.8586 29.9088L21.0523 21.824C20.9409 21.5029 20.5901 21.3326 20.2694 21.4445C19.9484 21.5559 19.7785 21.9065 19.8899 22.2274L23.0885 31.4422C23.2054 31.7716 23.5178 31.9919 23.867 31.9919C23.8688 31.9919 23.8707 31.9919 23.8726 31.9919C24.224 31.9896 24.5361 31.7644 24.6506 31.4275L27.7039 22.2368C27.8111 21.9143 27.6365 21.5661 27.314 21.4591Z" fill="white"/>
</g>
<defs>
<clipPath id="clip0_18_68">
<rect width="42" height="42" fill="white"/>
</clipPath>
</defs>
</svg>
