<svg width="42" height="42" viewBox="0 0 42 42" fill="none" xmlns="http://www.w3.org/2000/svg">
<path d="M6.08498 16.3935V15.4747C6.08498 15.1563 5.82663 14.8979 5.50819 14.8979C5.18951 14.8979 4.9314 15.1563 4.9314 15.4747V16.3935C4.9314 16.712 5.18951 16.9703 5.50819 16.9703C5.82663 16.9703 6.08498 16.712 6.08498 16.3935Z" fill="white"/>
<path d="M16.2383 16.3935V15.4747C16.2383 15.1563 15.9799 14.8979 15.6615 14.8979C15.3428 14.8979 15.085 15.1563 15.085 15.4747V16.3935C15.085 16.712 15.3428 16.9703 15.6615 16.9703C15.9799 16.9703 16.2383 16.712 16.2383 16.3935Z" fill="white"/>
<path d="M10.5848 17.4603C11.2397 17.4603 11.8545 17.1863 12.2722 16.7088C12.4817 16.4689 12.4572 16.1046 12.2174 15.895C11.9775 15.6852 11.6132 15.71 11.4036 15.9496C11.2051 16.1767 10.9068 16.3067 10.5848 16.3067C10.2628 16.3067 9.96451 16.1767 9.76576 15.9496C9.55643 15.71 9.19209 15.6852 8.952 15.895C8.71239 16.1046 8.68764 16.4689 8.89745 16.7088C9.3149 17.1863 9.9299 17.4603 10.5848 17.4603Z" fill="white"/>
<path d="M40.5837 23.7523C40.7436 23.1825 40.6717 22.5843 40.3816 22.0686C40.3816 22.0686 33.4481 9.73725 33.4445 9.73053C32.8533 8.67884 31.4796 8.29359 30.4272 8.88529L28.5954 9.91534L23.7936 5.82348C22.864 5.03136 21.4629 5.14311 20.6703 6.07319L19.3071 7.67282C19.3071 7.67282 13.3878 5.49279 13.3873 5.49231C12.2554 5.07582 10.959 5.67424 10.5425 6.80571L9.81601 8.77834H3.50759C2.28576 8.77834 1.29199 9.7721 1.29199 10.9937V26.1378C1.29199 26.4563 1.55035 26.7146 1.86878 26.7146C2.18722 26.7146 2.44558 26.4563 2.44558 26.1378V10.9937C2.44558 10.4083 2.92191 9.93192 3.50759 9.93192H17.6621C18.248 9.93192 18.7243 10.4083 18.7243 10.9937V33.2038C18.7243 33.789 18.2485 34.2653 17.6633 34.266C17.6618 34.266 17.6606 34.266 17.6594 34.266H3.50759C2.92191 34.266 2.44558 33.7892 2.44558 33.2038V28.4448C2.44558 28.1263 2.18722 27.8682 1.86878 27.8682C1.55035 27.8682 1.29199 28.1263 1.29199 28.4448V33.2038C1.29199 34.4256 2.28576 35.4194 3.50759 35.4194H17.3571C17.645 35.7825 18.0382 36.0457 18.4931 36.173C19.0564 36.3309 19.6666 36.2574 20.1769 35.9709L39.5362 25.0859C40.0519 24.7956 40.4242 24.3221 40.5837 23.7523ZM17.6621 8.77834H11.0453C11.0453 8.77834 11.6243 7.20658 11.6252 7.20466C11.8242 6.66344 12.4488 6.37624 12.9886 6.575C12.9886 6.575 26.2627 11.4635 26.2711 11.4667C26.8088 11.6645 27.0979 12.2936 26.9006 12.8301L19.8777 31.8997V10.9937C19.8777 9.7721 18.8839 8.77834 17.6621 8.77834ZM39.4665 23.4389C39.3927 23.7031 39.2208 23.9398 38.9709 24.0801L21.2574 34.0399L30.7492 22.9004C30.9559 22.6579 30.9268 22.2938 30.6843 22.0871C30.4469 21.8847 30.0736 21.915 29.8715 22.152L20.758 32.8469C20.758 32.8469 27.9821 13.2324 27.9833 13.2288C28.4002 12.0963 27.8008 10.8007 26.6694 10.3842L20.4607 8.09748L21.5482 6.82109C21.9282 6.37528 22.5996 6.32145 23.0457 6.70165C23.0457 6.70165 33.8062 15.871 33.8192 15.882C34.2511 16.2502 34.3176 16.9347 33.9384 17.3793L31.3469 20.4209C31.1402 20.6634 31.1693 21.0275 31.4118 21.2337C31.6541 21.4404 32.0182 21.4113 32.2248 21.1688C32.2248 21.1688 34.8151 18.1293 34.8166 18.1276C35.6003 17.2077 35.4859 15.7868 34.5671 15.0038L29.5307 10.7125C29.5307 10.7125 30.9915 9.89131 30.9927 9.89058C31.4976 9.60676 32.1559 9.79253 32.4392 10.296C32.4392 10.296 39.3708 22.6242 39.3761 22.6336C39.5167 22.8843 39.5405 23.1753 39.4665 23.4389Z" fill="white"/>
</svg>
