<svg width="42" height="42" viewBox="0 0 42 42" fill="none" xmlns="http://www.w3.org/2000/svg">
<path d="M18.48 7.56019C19.4079 7.56019 20.16 6.80803 20.16 5.8802C20.16 4.95236 19.4079 4.2002 18.48 4.2002C17.5522 4.2002 16.8 4.95236 16.8 5.8802C16.8 6.80803 17.5522 7.56019 18.48 7.56019Z" fill="white"/>
<path d="M37.8 11.76H32.76V4.2C32.76 1.88412 30.8759 0 28.56 0H16.8C14.4841 0 12.6 1.88412 12.6 4.2V10.08H4.2C1.88412 10.08 0 11.9641 0 14.28V26.04C0 28.3559 1.88412 30.24 4.2 30.24H9.24V37.8C9.24 40.1159 11.1241 42 13.44 42H25.2C27.5159 42 29.4 40.1159 29.4 37.8V31.92H37.8C40.1159 31.92 42 30.0359 42 27.72V15.96C42 13.6441 40.1159 11.76 37.8 11.76ZM1.68 26.04V14.28C1.68 12.8906 2.81064 11.76 4.2 11.76H22.68C23.7913 11.76 23.7922 10.08 22.68 10.08H14.28V4.2C14.28 2.81064 15.4106 1.68 16.8 1.68H28.56C29.9494 1.68 31.08 2.81064 31.08 4.2V17.64C31.08 19.0294 29.9494 20.16 28.56 20.16H13.44C11.1241 20.16 9.24 22.0441 9.24 24.36V28.56H4.2C2.81064 28.56 1.68 27.4294 1.68 26.04ZM40.32 27.72C40.32 29.1094 39.1894 30.24 37.8 30.24H19.32C18.2087 30.24 18.2078 31.92 19.32 31.92H27.72V37.8C27.72 39.1894 26.5894 40.32 25.2 40.32H13.44C12.0506 40.32 10.92 39.1894 10.92 37.8V29.4V24.36C10.92 22.9706 12.0506 21.84 13.44 21.84H28.56C30.8759 21.84 32.76 19.9559 32.76 17.64V13.44H37.8C39.1894 13.44 40.32 14.5706 40.32 15.96V27.72Z" fill="white"/>
<path d="M23.5201 37.7999C24.4479 37.7999 25.2001 37.0478 25.2001 36.1199C25.2001 35.1921 24.4479 34.4399 23.5201 34.4399C22.5922 34.4399 21.8401 35.1921 21.8401 36.1199C21.8401 37.0478 22.5922 37.7999 23.5201 37.7999Z" fill="white"/>
</svg>
