<svg width="42" height="42" viewBox="0 0 42 42" fill="none" xmlns="http://www.w3.org/2000/svg">
<path d="M12.6918 36.0404C12.2956 36.0415 11.903 35.9639 11.5369 35.8123C11.1708 35.6606 10.8384 35.4379 10.559 35.1569L8.89459 33.4933L7.231 35.1569C6.66087 35.7005 5.90076 35.9995 5.11308 35.9901C4.3254 35.9808 3.57263 35.6637 3.01561 35.1067C2.4586 34.5497 2.14153 33.7969 2.13214 33.0092C2.12275 32.2215 2.4218 31.4614 2.96537 30.8913L4.62897 29.2277L2.96455 27.5625C2.42098 26.9923 2.12193 26.2322 2.13132 25.4445C2.14071 24.6569 2.45778 23.9041 3.01479 23.3471C3.57181 22.7901 4.32458 22.473 5.11226 22.4636C5.89994 22.4542 6.66005 22.7533 7.23018 23.2968L8.89377 24.9604L10.5582 23.2968C11.1283 22.7533 11.8884 22.4542 12.6761 22.4636C13.4638 22.473 14.2166 22.7901 14.7736 23.3471C15.3306 23.9041 15.6477 24.6569 15.6571 25.4445C15.6664 26.2322 15.3674 26.9923 14.8238 27.5625L13.1602 29.226L14.8238 30.8896C15.2455 31.3116 15.5327 31.8491 15.649 32.4342C15.7653 33.0193 15.7056 33.6257 15.4773 34.1769C15.249 34.728 14.8625 35.1992 14.3666 35.5307C13.8706 35.8622 13.2876 36.0393 12.691 36.0396L12.6918 36.0404ZM8.89459 32.3047C9.02509 32.3048 9.15019 32.3567 9.24241 32.4491L11.2546 34.4605C11.6404 34.8155 12.1485 35.0077 12.6728 34.9969C13.197 34.986 13.6967 34.7729 14.0674 34.4022C14.4382 34.0314 14.6513 33.5317 14.6621 33.0075C14.673 32.4833 14.4808 31.9752 14.1257 31.5894L12.1135 29.5771C12.0213 29.4849 11.9696 29.3598 11.9696 29.2293C11.9696 29.0989 12.0213 28.9738 12.1135 28.8815L14.1257 26.8693C14.3273 26.6838 14.4892 26.4595 14.6019 26.2098C14.7145 25.9601 14.7755 25.6902 14.7812 25.4163C14.7869 25.1425 14.7371 24.8703 14.6349 24.6161C14.5327 24.362 14.3802 24.1311 14.1865 23.9374C13.9928 23.7438 13.7619 23.5912 13.5078 23.489C13.2536 23.3868 12.9815 23.3371 12.7076 23.3427C12.4337 23.3484 12.1639 23.4094 11.9142 23.522C11.6645 23.6347 11.4401 23.7966 11.2546 23.9982L9.24241 26.0039C9.15012 26.096 9.02502 26.1478 8.89459 26.1478C8.76416 26.1478 8.63907 26.096 8.54678 26.0039L6.53537 23.9933C6.34987 23.7917 6.12554 23.6298 5.87584 23.5171C5.62615 23.4045 5.35627 23.3435 5.0824 23.3378C4.80854 23.3322 4.53636 23.3819 4.28222 23.4841C4.02807 23.5863 3.79722 23.7388 3.60353 23.9325C3.40984 24.1262 3.25731 24.3571 3.15511 24.6112C3.05291 24.8654 3.00316 25.1375 3.00883 25.4114C3.01451 25.6853 3.07549 25.9551 3.18813 26.2048C3.30077 26.4545 3.46273 26.6789 3.66428 26.8644L5.67569 28.8766C5.76786 28.9689 5.81963 29.094 5.81963 29.2244C5.81963 29.3548 5.76786 29.4799 5.67569 29.5722L3.661 31.5869C3.45945 31.7724 3.29749 31.9967 3.18485 32.2464C3.07221 32.4961 3.01122 32.766 3.00555 33.0399C2.99987 33.3137 3.04963 33.5859 3.15183 33.8401C3.25403 34.0942 3.40656 34.3251 3.60025 34.5188C3.79394 34.7124 4.02479 34.865 4.27894 34.9672C4.53308 35.0694 4.80526 35.1191 5.07912 35.1135C5.35299 35.1078 5.62287 35.0468 5.87256 34.9341C6.12225 34.8215 6.34659 34.6595 6.53209 34.458L8.5435 32.4466C8.58975 32.4009 8.64459 32.3649 8.70485 32.3405C8.76511 32.3162 8.8296 32.304 8.89459 32.3047Z" fill="white"/>
<path d="M37.0783 36.2811H22.3742C21.2155 36.2798 20.1047 35.8189 19.2854 34.9995C18.4662 34.1801 18.0055 33.0691 18.0044 31.9105V26.5431C18.0057 25.3846 18.4665 24.2739 19.2857 23.4547C20.1049 22.6355 21.2157 22.1746 22.3742 22.1733H37.0783C38.2368 22.1746 39.3476 22.6355 40.1668 23.4547C40.986 24.2739 41.4468 25.3846 41.4481 26.5431V31.9105C41.447 33.0691 40.9863 34.1801 40.1671 34.9995C39.3478 35.8189 38.237 36.2798 37.0783 36.2811ZM22.3709 23.1561C21.4734 23.1572 20.6129 23.5142 19.9783 24.1488C19.3436 24.7835 18.9866 25.644 18.9855 26.5415V31.9105C18.9866 32.808 19.3436 33.6685 19.9783 34.3031C20.6129 34.9378 21.4734 35.2948 22.3709 35.2959H37.0783C37.9764 35.2957 38.8377 34.939 39.4731 34.3043C40.1084 33.6695 40.4659 32.8086 40.467 31.9105V26.5431C40.4659 25.645 40.1084 24.7841 39.4731 24.1493C38.8377 23.5146 37.9764 23.1579 37.0783 23.1577L22.3709 23.1561Z" fill="white"/>
<path d="M2.82286 16.0324C2.69237 16.0323 2.56726 15.9804 2.47505 15.888L1.73677 15.1498C1.64441 15.0574 1.59253 14.9322 1.59253 14.8015C1.59253 14.6709 1.64441 14.5457 1.73677 14.4533C1.82912 14.361 1.95438 14.3091 2.08499 14.3091C2.2156 14.3091 2.34086 14.361 2.43321 14.4533L3.17149 15.1916C3.24057 15.2604 3.28764 15.3482 3.30674 15.4439C3.32583 15.5395 3.31608 15.6387 3.27873 15.7288C3.24137 15.8188 3.1781 15.8958 3.09694 15.9499C3.01578 16.0039 2.92038 16.0327 2.82286 16.0324Z" fill="white"/>
<path d="M7.00141 19.0167C6.55884 19.0176 6.12045 18.931 5.71139 18.7621C5.30232 18.5932 4.93062 18.3452 4.61758 18.0323L4.02531 17.4401C3.97958 17.3943 3.94331 17.3401 3.91856 17.2803C3.89381 17.2206 3.88107 17.1565 3.88107 17.0919C3.88107 17.0272 3.89381 16.9631 3.91856 16.9034C3.94331 16.8436 3.97958 16.7894 4.02531 16.7436C4.07104 16.6979 4.12533 16.6616 4.18508 16.6369C4.24483 16.6121 4.30887 16.5994 4.37354 16.5994C4.43821 16.5994 4.50224 16.6121 4.56199 16.6369C4.62174 16.6616 4.67603 16.6979 4.72176 16.7436L5.31402 17.3359C5.76183 17.7826 6.3685 18.0334 7.001 18.0334C7.63349 18.0334 8.24017 17.7826 8.68797 17.3359L15.9166 10.1171C16.0693 9.96615 16.1908 9.78644 16.2738 9.58836C16.3569 9.39028 16.4 9.17773 16.4007 8.96293C16.4014 8.74813 16.3596 8.53532 16.2777 8.33673C16.1959 8.13813 16.0756 7.95768 15.9237 7.80574C15.7719 7.6538 15.5915 7.53337 15.393 7.45137C15.1944 7.36937 14.9817 7.32742 14.7669 7.32793C14.5521 7.32844 14.3395 7.3714 14.1413 7.45435C13.9432 7.53729 13.7634 7.65859 13.6123 7.81125L8.02516 13.3959C7.86297 13.5584 7.66425 13.6796 7.44562 13.7496C7.22699 13.8195 6.99479 13.8361 6.76844 13.7979C6.65543 13.7804 6.54515 13.7484 6.44031 13.7027C6.27138 13.6304 6.11793 13.5262 5.98832 13.3959L4.18363 11.5871C3.95567 11.3577 3.66465 11.2012 3.34755 11.1375C3.03044 11.0738 2.70156 11.1057 2.40266 11.2293C2.10377 11.3529 1.84836 11.5626 1.66886 11.8317C1.48937 12.1007 1.3939 12.4171 1.39457 12.7405C1.39449 12.8724 1.41075 13.0039 1.44297 13.1318C1.47473 13.2585 1.45485 13.3927 1.3877 13.5048C1.32055 13.6168 1.21163 13.6976 1.0849 13.7294C0.958175 13.7612 0.824018 13.7413 0.711947 13.6741C0.599875 13.607 0.51907 13.4981 0.487306 13.3713C0.349232 12.8165 0.396814 12.2316 0.622766 11.7064C0.848718 11.1811 1.24059 10.7444 1.73838 10.4631C2.23616 10.1818 2.81244 10.0713 3.37896 10.1487C3.94549 10.2261 4.47104 10.487 4.87516 10.8915L6.68395 12.7003C6.72495 12.7421 6.77408 12.7751 6.82832 12.7971C6.85989 12.8115 6.89329 12.8214 6.92758 12.8266C6.99955 12.8398 7.07365 12.8352 7.14342 12.8132C7.21319 12.7912 7.27652 12.7524 7.32789 12.7003L12.9159 7.11234C13.4064 6.62218 14.0715 6.34694 14.7649 6.34717C15.4583 6.3474 16.1233 6.62308 16.6134 7.11357C17.1036 7.60406 17.3788 8.26918 17.3786 8.96261C17.3784 9.65603 17.1027 10.321 16.6122 10.8111L9.38359 18.0299C9.07112 18.3432 8.6998 18.5917 8.29098 18.761C7.88217 18.9304 7.44391 19.0173 7.00141 19.0167Z" fill="white"/>
<path d="M37.2202 19.737H22.5136C21.3551 19.7357 20.2443 19.2749 19.4251 18.4556C18.6059 17.6364 18.1451 16.5257 18.1438 15.3672V9.99822C18.1451 8.83968 18.6059 7.72896 19.4251 6.90974C20.2443 6.09053 21.3551 5.62972 22.5136 5.62842H37.2202C38.3787 5.62972 39.4894 6.09053 40.3087 6.90974C41.1279 7.72896 41.5887 8.83968 41.59 9.99822V15.3672C41.5887 16.5257 41.1279 17.6364 40.3087 18.4556C39.4894 19.2749 38.3787 19.7357 37.2202 19.737ZM22.5136 6.61197C21.6161 6.61306 20.7556 6.97008 20.1209 7.60474C19.4863 8.2394 19.1293 9.09986 19.1282 9.9974V15.3663C19.1293 16.2639 19.4863 17.1244 20.1209 17.759C20.7556 18.3937 21.6161 18.7507 22.5136 18.7518H37.2202C38.1176 18.7507 38.9779 18.3938 39.6125 17.7593C40.2472 17.1248 40.6043 16.2646 40.6056 15.3672V9.99822C40.6045 9.10068 40.2475 8.24022 39.6128 7.60556C38.9782 6.97091 38.1177 6.61388 37.2202 6.61279L22.5136 6.61197Z" fill="white"/>
<path d="M37.3505 32.4766H22.6201C22.4896 32.4766 22.3644 32.4247 22.2721 32.3324C22.1798 32.2401 22.1279 32.1149 22.1279 31.9844C22.1279 31.8538 22.1798 31.7286 22.2721 31.6363C22.3644 31.544 22.4896 31.4922 22.6201 31.4922H37.3505C37.4151 31.4922 37.4791 31.5049 37.5388 31.5297C37.5985 31.5544 37.6528 31.5906 37.6985 31.6363C37.7442 31.682 37.7805 31.7363 37.8052 31.796C37.8299 31.8557 37.8427 31.9197 37.8427 31.9844C37.8427 32.049 37.8299 32.113 37.8052 32.1727C37.7805 32.2324 37.7442 32.2867 37.6985 32.3324C37.6528 32.3781 37.5985 32.4144 37.5388 32.4391C37.4791 32.4638 37.4151 32.4766 37.3505 32.4766Z" fill="white"/>
<path d="M37.3505 26.9624H22.6201C22.4896 26.9624 22.3644 26.9105 22.2721 26.8182C22.1798 26.7259 22.1279 26.6008 22.1279 26.4702C22.1279 26.3397 22.1798 26.2145 22.2721 26.1222C22.3644 26.0299 22.4896 25.978 22.6201 25.978H37.3505C37.481 25.978 37.6062 26.0299 37.6985 26.1222C37.7908 26.2145 37.8427 26.3397 37.8427 26.4702C37.8427 26.6008 37.7908 26.7259 37.6985 26.8182C37.6062 26.9105 37.481 26.9624 37.3505 26.9624Z" fill="white"/>
<path d="M37.2111 15.9692H22.4807C22.3502 15.9692 22.225 15.9174 22.1327 15.8251C22.0404 15.7328 21.9885 15.6076 21.9885 15.4771C21.9885 15.3465 22.0404 15.2213 22.1327 15.129C22.225 15.0367 22.3502 14.9849 22.4807 14.9849H37.2111C37.3416 14.9849 37.4668 15.0367 37.5591 15.129C37.6514 15.2213 37.7033 15.3465 37.7033 15.4771C37.7033 15.6076 37.6514 15.7328 37.5591 15.8251C37.4668 15.9174 37.3416 15.9692 37.2111 15.9692Z" fill="white"/>
<path d="M37.2111 10.4551H22.4807C22.3502 10.4551 22.225 10.4032 22.1327 10.3109C22.0404 10.2186 21.9885 10.0934 21.9885 9.96289C21.9885 9.83235 22.0404 9.70716 22.1327 9.61486C22.225 9.52256 22.3502 9.4707 22.4807 9.4707H37.2111C37.3416 9.4707 37.4668 9.52256 37.5591 9.61486C37.6514 9.70716 37.7033 9.83235 37.7033 9.96289C37.7033 10.0934 37.6514 10.2186 37.5591 10.3109C37.4668 10.4032 37.3416 10.4551 37.2111 10.4551Z" fill="white"/>
</svg>
