<svg width="42" height="42" viewBox="0 0 42 42" fill="none" xmlns="http://www.w3.org/2000/svg">
<path d="M37.4062 5.25H34.125V3.9375C34.125 3.24131 33.8484 2.57363 33.3562 2.08134C32.8639 1.58906 32.1962 1.3125 31.5 1.3125C30.8038 1.3125 30.1361 1.58906 29.6438 2.08134C29.1516 2.57363 28.875 3.24131 28.875 3.9375V5.25H23.625V3.9375C23.625 3.24131 23.3484 2.57363 22.8562 2.08134C22.3639 1.58906 21.6962 1.3125 21 1.3125C20.3038 1.3125 19.6361 1.58906 19.1438 2.08134C18.6516 2.57363 18.375 3.24131 18.375 3.9375V5.25H13.125V3.9375C13.125 3.24131 12.8484 2.57363 12.3562 2.08134C11.8639 1.58906 11.1962 1.3125 10.5 1.3125C9.80381 1.3125 9.13613 1.58906 8.64384 2.08134C8.15156 2.57363 7.875 3.24131 7.875 3.9375V5.25H4.59375C3.72351 5.25 2.88891 5.5957 2.27356 6.21106C1.6582 6.82641 1.3125 7.66101 1.3125 8.53125V34.7812C1.3125 35.6515 1.6582 36.4861 2.27356 37.1014C2.88891 37.7168 3.72351 38.0625 4.59375 38.0625H22.9688C23.1428 38.0625 23.3097 37.9934 23.4328 37.8703C23.5559 37.7472 23.625 37.5803 23.625 37.4062C23.625 37.2322 23.5559 37.0653 23.4328 36.9422C23.3097 36.8191 23.1428 36.75 22.9688 36.75H4.59375C4.07208 36.7484 3.57223 36.5405 3.20335 36.1716C2.83448 35.8028 2.62656 35.3029 2.625 34.7812V14.4375H39.375V25.5938C39.375 25.7678 39.4441 25.9347 39.5672 26.0578C39.6903 26.1809 39.8572 26.25 40.0312 26.25C40.2053 26.25 40.3722 26.1809 40.4953 26.0578C40.6184 25.9347 40.6875 25.7678 40.6875 25.5938V8.53125C40.6875 7.66101 40.3418 6.82641 39.7264 6.21106C39.1111 5.5957 38.2765 5.25 37.4062 5.25ZM30.1875 3.9375C30.1875 3.5894 30.3258 3.25556 30.5719 3.00942C30.8181 2.76328 31.1519 2.625 31.5 2.625C31.8481 2.625 32.1819 2.76328 32.4281 3.00942C32.6742 3.25556 32.8125 3.5894 32.8125 3.9375V7.875C32.8125 8.2231 32.6742 8.55694 32.4281 8.80308C32.1819 9.04922 31.8481 9.1875 31.5 9.1875C31.1519 9.1875 30.8181 9.04922 30.5719 8.80308C30.3258 8.55694 30.1875 8.2231 30.1875 7.875V3.9375ZM19.6875 3.9375C19.6875 3.5894 19.8258 3.25556 20.0719 3.00942C20.3181 2.76328 20.6519 2.625 21 2.625C21.3481 2.625 21.6819 2.76328 21.9281 3.00942C22.1742 3.25556 22.3125 3.5894 22.3125 3.9375V7.875C22.3125 8.2231 22.1742 8.55694 21.9281 8.80308C21.6819 9.04922 21.3481 9.1875 21 9.1875C20.6519 9.1875 20.3181 9.04922 20.0719 8.80308C19.8258 8.55694 19.6875 8.2231 19.6875 7.875V3.9375ZM9.1875 3.9375C9.1875 3.5894 9.32578 3.25556 9.57192 3.00942C9.81806 2.76328 10.1519 2.625 10.5 2.625C10.8481 2.625 11.1819 2.76328 11.4281 3.00942C11.6742 3.25556 11.8125 3.5894 11.8125 3.9375V7.875C11.8125 8.2231 11.6742 8.55694 11.4281 8.80308C11.1819 9.04922 10.8481 9.1875 10.5 9.1875C10.1519 9.1875 9.81806 9.04922 9.57192 8.80308C9.32578 8.55694 9.1875 8.2231 9.1875 7.875V3.9375ZM39.375 13.125H2.625V8.53125C2.62656 8.00958 2.83448 7.50973 3.20335 7.14085C3.57223 6.77198 4.07208 6.56406 4.59375 6.5625H7.875V7.875C7.875 8.57119 8.15156 9.23887 8.64384 9.73116C9.13613 10.2234 9.80381 10.5 10.5 10.5C11.1962 10.5 11.8639 10.2234 12.3562 9.73116C12.8484 9.23887 13.125 8.57119 13.125 7.875V6.5625H18.375V7.875C18.375 8.57119 18.6516 9.23887 19.1438 9.73116C19.6361 10.2234 20.3038 10.5 21 10.5C21.6962 10.5 22.3639 10.2234 22.8562 9.73116C23.3484 9.23887 23.625 8.57119 23.625 7.875V6.5625H28.875V7.875C28.875 8.57119 29.1516 9.23887 29.6438 9.73116C30.1361 10.2234 30.8038 10.5 31.5 10.5C32.1962 10.5 32.8639 10.2234 33.3562 9.73116C33.8484 9.23887 34.125 8.57119 34.125 7.875V6.5625H37.4062C37.9279 6.56406 38.4278 6.77198 38.7966 7.14085C39.1655 7.50973 39.3734 8.00958 39.375 8.53125V13.125Z" fill="white"/>
<path d="M19.6875 19.0312C19.6875 18.6832 19.5492 18.3493 19.3031 18.1032C19.0569 17.857 18.7231 17.7188 18.375 17.7188H15.75C15.4019 17.7188 15.0681 17.857 14.8219 18.1032C14.5758 18.3493 14.4375 18.6832 14.4375 19.0312V21C14.4375 21.3481 14.5758 21.6819 14.8219 21.9281C15.0681 22.1742 15.4019 22.3125 15.75 22.3125H18.375C18.7231 22.3125 19.0569 22.1742 19.3031 21.9281C19.5492 21.6819 19.6875 21.3481 19.6875 21V19.0312ZM15.75 21V19.0312H18.375V21H15.75Z" fill="white"/>
<path d="M11.8125 19.0312C11.8125 18.6832 11.6742 18.3493 11.4281 18.1032C11.1819 17.857 10.8481 17.7188 10.5 17.7188H7.875C7.5269 17.7188 7.19306 17.857 6.94692 18.1032C6.70078 18.3493 6.5625 18.6832 6.5625 19.0312V21C6.5625 21.3481 6.70078 21.6819 6.94692 21.9281C7.19306 22.1742 7.5269 22.3125 7.875 22.3125H10.5C10.8481 22.3125 11.1819 22.1742 11.4281 21.9281C11.6742 21.6819 11.8125 21.3481 11.8125 21V19.0312ZM7.875 21V19.0312H10.5V21H7.875Z" fill="white"/>
<path d="M34.125 22.3125C34.4731 22.3125 34.8069 22.1742 35.0531 21.9281C35.2992 21.6819 35.4375 21.3481 35.4375 21V19.0312C35.4375 18.6832 35.2992 18.3493 35.0531 18.1032C34.8069 17.857 34.4731 17.7188 34.125 17.7188H31.5C31.1519 17.7188 30.8181 17.857 30.5719 18.1032C30.3258 18.3493 30.1875 18.6832 30.1875 19.0312V21C30.1875 21.3481 30.3258 21.6819 30.5719 21.9281C30.8181 22.1742 31.1519 22.3125 31.5 22.3125H34.125ZM31.5 19.0312H34.125V21H31.5V19.0312Z" fill="white"/>
<path d="M19.6875 24.9375C19.6875 24.5894 19.5492 24.2556 19.3031 24.0094C19.0569 23.7633 18.7231 23.625 18.375 23.625H15.75C15.4019 23.625 15.0681 23.7633 14.8219 24.0094C14.5758 24.2556 14.4375 24.5894 14.4375 24.9375V26.9062C14.4375 27.2543 14.5758 27.5882 14.8219 27.8343C15.0681 28.0805 15.4019 28.2188 15.75 28.2188H18.375C18.7231 28.2188 19.0569 28.0805 19.3031 27.8343C19.5492 27.5882 19.6875 27.2543 19.6875 26.9062V24.9375ZM15.75 26.9062V24.9375H18.375V26.9062H15.75Z" fill="white"/>
<path d="M11.8125 24.9375C11.8125 24.5894 11.6742 24.2556 11.4281 24.0094C11.1819 23.7633 10.8481 23.625 10.5 23.625H7.875C7.5269 23.625 7.19306 23.7633 6.94692 24.0094C6.70078 24.2556 6.5625 24.5894 6.5625 24.9375V26.9062C6.5625 27.2543 6.70078 27.5882 6.94692 27.8343C7.19306 28.0805 7.5269 28.2188 7.875 28.2188H10.5C10.8481 28.2188 11.1819 28.0805 11.4281 27.8343C11.6742 27.5882 11.8125 27.2543 11.8125 26.9062V24.9375ZM7.875 26.9062V24.9375H10.5V26.9062H7.875Z" fill="white"/>
<path d="M18.375 29.5312H15.75C15.4019 29.5312 15.0681 29.6695 14.8219 29.9157C14.5758 30.1618 14.4375 30.4957 14.4375 30.8438V32.8125C14.4375 33.1606 14.5758 33.4944 14.8219 33.7406C15.0681 33.9867 15.4019 34.125 15.75 34.125H18.375C18.7231 34.125 19.0569 33.9867 19.3031 33.7406C19.5492 33.4944 19.6875 33.1606 19.6875 32.8125V30.8438C19.6875 30.4957 19.5492 30.1618 19.3031 29.9157C19.0569 29.6695 18.7231 29.5312 18.375 29.5312ZM15.75 32.8125V30.8438H18.375V32.8125H15.75Z" fill="white"/>
<path d="M23.625 22.3125H26.25C26.5981 22.3125 26.9319 22.1742 27.1781 21.9281C27.4242 21.6819 27.5625 21.3481 27.5625 21V19.0312C27.5625 18.6832 27.4242 18.3493 27.1781 18.1032C26.9319 17.857 26.5981 17.7188 26.25 17.7188H23.625C23.2769 17.7188 22.9431 17.857 22.6969 18.1032C22.4508 18.3493 22.3125 18.6832 22.3125 19.0312V21C22.3125 21.3481 22.4508 21.6819 22.6969 21.9281C22.9431 22.1742 23.2769 22.3125 23.625 22.3125ZM23.625 19.0312H26.25V21H23.625V19.0312Z" fill="white"/>
<path d="M22.3125 26.9062C22.3125 27.2543 22.4508 27.5882 22.6969 27.8343C22.9431 28.0805 23.2769 28.2188 23.625 28.2188C23.799 28.2188 23.966 28.1496 24.089 28.0265C24.2121 27.9035 24.2812 27.7365 24.2812 27.5625C24.2812 27.3885 24.2121 27.2215 24.089 27.0985C23.966 26.9754 23.799 26.9062 23.625 26.9062V24.9375H26.25C26.424 24.9375 26.591 24.8684 26.714 24.7453C26.8371 24.6222 26.9062 24.4553 26.9062 24.2812C26.9062 24.1072 26.8371 23.9403 26.714 23.8172C26.591 23.6941 26.424 23.625 26.25 23.625H23.625C23.2769 23.625 22.9431 23.7633 22.6969 24.0094C22.4508 24.2556 22.3125 24.5894 22.3125 24.9375V26.9062Z" fill="white"/>
<path d="M10.5 29.5312H7.875C7.5269 29.5312 7.19306 29.6695 6.94692 29.9157C6.70078 30.1618 6.5625 30.4957 6.5625 30.8438V32.8125C6.5625 33.1606 6.70078 33.4944 6.94692 33.7406C7.19306 33.9867 7.5269 34.125 7.875 34.125H10.5C10.8481 34.125 11.1819 33.9867 11.4281 33.7406C11.6742 33.4944 11.8125 33.1606 11.8125 32.8125V30.8438C11.8125 30.4957 11.6742 30.1618 11.4281 29.9157C11.1819 29.6695 10.8481 29.5312 10.5 29.5312ZM7.875 32.8125V30.8438H10.5V32.8125H7.875Z" fill="white"/>
<path d="M32.1562 23.625C30.4689 23.625 28.8195 24.1253 27.4165 25.0628C26.0136 26.0002 24.9201 27.3326 24.2744 28.8915C23.6287 30.4504 23.4597 32.1657 23.7889 33.8206C24.1181 35.4755 24.9306 36.9956 26.1237 38.1887C27.3169 39.3819 28.837 40.1944 30.4919 40.5236C32.1468 40.8527 33.8621 40.6838 35.421 40.0381C36.9799 39.3924 38.3123 38.2989 39.2497 36.8959C40.1871 35.493 40.6875 33.8436 40.6875 32.1562C40.6849 29.8944 39.7852 27.726 38.1859 26.1266C36.5865 24.5273 34.4181 23.6276 32.1562 23.625ZM32.1562 39.375C30.7285 39.375 29.3328 38.9516 28.1457 38.1584C26.9586 37.3652 26.0334 36.2378 25.487 34.9187C24.9406 33.5997 24.7977 32.1482 25.0762 30.7479C25.3547 29.3476 26.0423 28.0614 27.0518 27.0518C28.0614 26.0423 29.3476 25.3547 30.7479 25.0762C32.1482 24.7977 33.5997 24.9406 34.9187 25.487C36.2378 26.0334 37.3652 26.9586 38.1584 28.1457C38.9516 29.3328 39.375 30.7285 39.375 32.1562C39.3727 34.0701 38.6115 35.9049 37.2582 37.2582C35.9049 38.6115 34.0701 39.3727 32.1562 39.375Z" fill="white"/>
<path d="M35.9479 29.4054L30.8436 34.5097L28.5238 32.1892C28.4 32.0697 28.2342 32.0035 28.0622 32.005C27.8901 32.0065 27.7255 32.0755 27.6038 32.1972C27.4822 32.3189 27.4131 32.4835 27.4116 32.6555C27.4102 32.8276 27.4763 32.9934 27.5958 33.1172L30.3796 35.9016C30.5027 36.0247 30.6696 36.0938 30.8436 36.0938C31.0176 36.0938 31.1845 36.0247 31.3076 35.9016L36.8759 30.3333C36.9954 30.2096 37.0616 30.0438 37.0601 29.8717C37.0586 29.6997 36.9895 29.5351 36.8679 29.4134C36.7462 29.2917 36.5816 29.2227 36.4095 29.2212C36.2375 29.2197 36.0717 29.2859 35.9479 29.4054Z" fill="white"/>
</svg>
