<svg width="52" height="52" viewBox="0 0 52 52" fill="none" xmlns="http://www.w3.org/2000/svg">
<g clip-path="url(#clip0_12_52)">
<path d="M39.8667 0H12.1334C10.7 0 9.53345 1.16655 9.53345 2.6C9.53345 4.03345 10.7 5.2 12.1334 5.2H39.8668C41.3003 5.2 42.4668 4.03345 42.4668 2.6C42.4668 1.16655 41.3002 0 39.8667 0ZM39.8667 3.46663H12.1334C11.6559 3.46663 11.2668 3.07836 11.2668 2.6C11.2668 2.12164 11.6559 1.73337 12.1334 1.73337H39.8668C40.3444 1.73337 40.7334 2.12164 40.7334 2.6C40.7334 3.07836 40.3443 3.46663 39.8667 3.46663Z" fill="white"/>
<path d="M39.8667 46.8003H12.1334C10.7 46.8003 9.53345 47.9668 9.53345 49.4003C9.53345 50.8337 10.7 52.0003 12.1334 52.0003H39.8668C41.3003 52.0003 42.4668 50.8337 42.4668 49.4003C42.4668 47.9668 41.3002 46.8003 39.8667 46.8003ZM39.8667 50.2669H12.1334C11.6559 50.2669 11.2668 49.8787 11.2668 49.4003C11.2668 48.9219 11.6559 48.5337 12.1334 48.5337H39.8668C40.3444 48.5337 40.7334 48.9219 40.7334 49.4003C40.7334 49.8787 40.3443 50.2669 39.8667 50.2669Z" fill="white"/>
<path d="M32.1759 22.783C36.5768 18.3821 39 12.5311 39 6.30852V4.33343C39 3.85416 38.6117 3.4668 38.1334 3.4668H13.8666C13.3883 3.4668 13 3.85416 13 4.33343V6.30852C13 12.5321 15.4232 18.3821 19.8233 22.783L20.6943 23.654C21.3122 24.2719 21.6666 25.1264 21.6666 26.0001C21.6666 26.8737 21.3122 27.7283 20.6951 28.3462L19.8241 29.2172C15.4232 33.6181 13 39.4681 13 45.6916V47.6667C13 48.146 13.3883 48.5333 13.8666 48.5333H38.1333C38.6116 48.5333 38.9999 48.146 38.9999 47.6667V45.6916C38.9999 39.469 36.5767 33.6181 32.1758 29.2172L31.3048 28.3462C30.6782 27.7195 30.3333 26.8867 30.3333 26.0001C30.3333 25.1134 30.6782 24.2806 31.3048 23.654L32.1759 22.783ZM30.0794 22.4285C29.1252 23.3819 28.6 24.6498 28.6 26.0001C28.6 27.3503 29.1252 28.6182 30.0794 29.5716L30.9504 30.4426C35.0237 34.516 37.2666 39.9317 37.2666 45.6916V46.8001H14.7334V45.6916C14.7334 39.9309 16.9763 34.516 21.0487 30.4426L21.9197 29.5716C22.8748 28.6182 23.4 27.3494 23.4 26.0001C23.4 24.6507 22.8748 23.3819 21.9206 22.4285L21.0496 21.5575C16.9763 17.4841 14.7334 12.0683 14.7334 6.30852V5.20006H37.2667V6.30852C37.2667 12.0684 35.0238 17.4841 30.9505 21.5575L30.0794 22.4285Z" fill="white"/>
<path d="M33.3242 14.601C33.2367 14.3809 32.9386 13.8669 32.0667 13.8669C27.5635 13.8669 25.5571 12.9023 24.7615 12.3268C23.7691 11.6084 22.496 11.4203 21.3529 11.825C20.2618 12.2107 19.4627 13.0687 19.1619 14.178C19.0839 14.4667 19.07 14.6538 19.07 14.6538C19.057 14.8246 19.0943 15.0092 19.1784 15.1591C19.9905 16.5987 20.9273 18.117 22.2759 19.4656L23.1459 20.3366C24.4278 21.6167 25.1332 23.3205 25.1332 25.1336C25.1332 25.6128 25.5215 26.0002 25.9998 26.0002C26.4782 26.0002 26.8665 25.6128 26.8665 25.1336C26.8665 23.3214 27.5719 21.6175 28.8528 20.3366L29.7248 19.4647C29.9388 19.2515 30.2178 18.988 30.5247 18.7003C32.7652 16.5935 33.7073 15.5682 33.3242 14.601ZM29.3359 17.4377C29.0152 17.7401 28.7222 18.0158 28.4987 18.2393L27.6268 19.1112C26.9534 19.7838 26.4074 20.5498 25.9991 21.3801C25.591 20.5498 25.045 19.7838 24.3715 19.1112L23.5013 18.2402C22.437 17.1751 21.6579 16.0025 20.8476 14.5889C21.0617 13.8653 21.6163 13.5706 21.9309 13.4588C22.5359 13.2447 23.2145 13.3461 23.7449 13.7309C24.8489 14.53 27.026 15.472 31.1965 15.5882C30.661 16.1914 29.8203 16.9827 29.3359 17.4377Z" fill="white"/>
<path d="M35.4735 44.1323C35.2559 41.3225 34.1293 40.156 32.8258 38.804C32.6499 38.6211 32.4662 38.4314 32.2781 38.2303C31.1896 37.0672 29.6521 36.3999 28.0583 36.3999H23.9407C22.3478 36.3999 20.8095 37.0673 19.7209 38.2303C19.5328 38.4314 19.35 38.6203 19.174 38.8032C17.8696 40.1552 16.743 41.3225 16.5264 44.1332C16.5073 44.3741 16.5905 44.6115 16.7543 44.7893C16.9189 44.9661 17.1486 45.0666 17.3904 45.0666H34.6093C34.8502 45.0666 35.0807 44.9661 35.2454 44.7885C35.4093 44.6107 35.4916 44.3724 35.4735 44.1323ZM18.3776 43.3333C18.6714 41.8201 19.3716 41.0955 20.422 40.007C20.604 39.8181 20.7929 39.6214 20.9871 39.4142C21.7489 38.5995 22.8253 38.1333 23.9407 38.1333H28.0583C29.1746 38.1333 30.2509 38.6004 31.0127 39.4134C31.2077 39.6231 31.3966 39.8181 31.5796 40.0079C32.6291 41.0965 33.3285 41.821 33.6232 43.3333H18.3776Z" fill="white"/>
<path d="M25.9741 27.7334C25.4957 27.7334 25.1074 28.1208 25.1074 28.6V29.4667C25.1074 29.9459 25.4957 30.3333 25.9741 30.3333C26.4524 30.3333 26.8407 29.9459 26.8407 29.4667V28.6C26.8407 28.1208 26.4524 27.7334 25.9741 27.7334Z" fill="white"/>
<path d="M25.9741 32.0669C25.4957 32.0669 25.1074 32.4543 25.1074 32.9335V33.8002C25.1074 34.2794 25.4957 34.6668 25.9741 34.6668C26.4524 34.6668 26.8407 34.2794 26.8407 33.8002V32.9335C26.8407 32.4544 26.4524 32.0669 25.9741 32.0669Z" fill="white"/>
</g>
<defs>
<clipPath id="clip0_12_52">
<rect width="52" height="52" fill="white"/>
</clipPath>
</defs>
</svg>
