<svg width="52" height="52" viewBox="0 0 52 52" fill="none" xmlns="http://www.w3.org/2000/svg">
<g clip-path="url(#clip0_12_25)">
<path d="M25.8207 18.3276C23.4999 18.3276 21.6116 20.2157 21.6116 22.5365C21.6116 24.8572 23.4997 26.7452 25.8207 26.7452C28.1413 26.7452 30.0295 24.8572 30.0295 22.5365C30.0295 20.2156 28.1414 18.3276 25.8207 18.3276ZM25.8207 25.2217C24.3397 25.2217 23.135 24.0171 23.135 22.5365C23.135 21.0557 24.3398 19.8511 25.8207 19.8511C27.3015 19.8511 28.5061 21.0558 28.5061 22.5365C28.5061 24.0171 27.3014 25.2217 25.8207 25.2217Z" fill="white"/>
<path d="M45.7005 49.4165C40.5231 45.4365 36.438 37.8682 33.8749 27.5211C38.6912 20.5815 38.5018 20.9323 38.5101 20.186C38.5254 18.778 37.1432 17.6482 35.6121 18.2279C35.0669 18.4302 35.0404 18.4403 32.658 21.9C32.119 18.8952 31.7886 16.2282 31.5911 14.2516H36.4794C37.2086 14.2516 37.8603 13.8163 38.1394 13.1425C38.4182 12.4689 38.2655 11.7006 37.7501 11.1848L33.2312 6.66632C32.9338 6.36895 32.4514 6.36895 32.154 6.66632C31.8565 6.9639 31.8565 7.44612 32.154 7.7436C37.0451 12.6346 36.8279 12.3273 36.7317 12.5598C36.6892 12.6623 36.5902 12.7284 36.4793 12.7284H30.7531C30.3063 12.7284 29.954 13.1123 29.9945 13.5591C30.2077 15.9055 30.6304 19.5412 31.4395 23.6699C30.7099 24.7287 30.0944 25.6211 29.2369 26.8607C28.898 27.3128 28.2803 27.647 27.5066 27.647C23.8252 27.647 23.9377 27.6654 23.5956 27.5909C22.8962 27.4386 22.5236 27.0193 22.4047 26.8608L20.2017 23.6763C21.0113 19.5465 21.4344 15.9078 21.6478 13.5592C21.6883 13.1134 21.3368 12.7285 20.8892 12.7285C14.7512 12.7285 15.0092 12.798 14.9107 12.56C14.8093 12.3151 14.2336 12.9987 25.6279 1.60403C25.7299 1.50206 25.9127 1.50216 26.0144 1.60393L29.6396 5.22911C29.937 5.52638 30.4194 5.52658 30.7167 5.22911C31.0142 4.93153 31.0142 4.44931 30.7167 4.15183L27.0913 0.52645C26.3889 -0.17545 25.2534 -0.175551 24.5508 0.526552L13.8926 11.1849C12.7634 12.3142 13.5643 14.2517 15.1629 14.2517H20.0513C19.8533 16.2317 19.5222 18.9038 18.982 21.9132L16.9466 18.9709C16.2909 18.0225 14.9862 17.781 14.0342 18.4402C13.0825 19.0983 12.8451 20.4012 13.5035 21.353L17.7675 27.5165C13.6318 44.2317 7.10444 48.2095 6.25182 49.1861C5.02778 50.4619 5.33003 51.9859 7.40933 51.9859H13.8933C14.314 51.9859 14.655 51.645 14.655 51.2242C14.655 50.8034 14.314 50.4625 13.8933 50.4625C6.89237 50.4625 7.32757 50.4662 7.1801 50.4537C7.76155 49.6181 14.5484 45.6141 18.9092 29.2012L20.1796 31.0372C20.2822 31.214 21.1859 32.8227 21.1859 34.6085C21.1859 51.2134 21.1735 50.2301 21.2119 50.4624H17.4478C17.0271 50.4624 16.6861 50.8033 16.6861 51.2241C16.6861 51.6449 17.0271 51.9858 17.4478 51.9858C23.1106 51.9858 22.7146 51.9925 22.8254 51.9702C23.0814 52.0102 28.5647 52.0096 28.8154 51.9703C28.9307 51.9936 27.978 51.9858 44.6991 51.9858C45.0437 51.9858 46.0926 51.9858 46.4026 51.1654C46.6552 50.4967 46.1423 49.7559 45.7005 49.4165ZM28.9193 34.5856V50.0719C28.9193 50.2928 28.7397 50.4723 28.5189 50.4723H26.583V40.3601C26.583 39.9393 26.242 39.5983 25.8213 39.5983C25.4006 39.5983 25.0596 39.9393 25.0596 40.3601V50.4723H23.1223C22.9016 50.4723 22.7221 50.2927 22.7221 50.0719V34.5856C22.7221 32.6902 21.8483 30.7364 21.4642 30.1827C14.2389 19.7386 14.6036 20.3915 14.6642 20.0595C14.7551 19.5603 15.4062 19.4217 15.6936 19.8373C15.7032 19.8512 21.1624 27.7428 21.1725 27.7564C21.4171 28.0881 22.3534 29.1702 24.1349 29.1702H27.5064C28.8579 29.1702 29.9623 28.4935 30.4823 27.7377C34.4759 21.9665 35.8257 19.9367 36.12 19.664C36.5656 19.4979 36.9768 19.6674 36.9872 20.2605C36.9872 20.2608 36.9872 20.2612 36.9873 20.2615C36.8002 20.6881 35.163 22.9762 30.1771 30.1827C30.0525 30.3623 28.9193 32.3346 28.9193 34.5856ZM30.4283 50.4626C30.4661 50.2343 30.4543 51.2163 30.4543 34.6087C30.4543 32.8199 31.3612 31.2086 31.4605 31.0377C31.9133 30.3831 32.3364 29.7722 32.7319 29.2018C34.7686 36.8662 38.3188 45.5313 44.5644 50.4626H30.4283Z" fill="white"/>
</g>
<defs>
<clipPath id="clip0_12_25">
<rect width="52" height="52" fill="white"/>
</clipPath>
</defs>
</svg>
